<svg width="502" height="502" viewBox="0 0 502 502" fill="none" xmlns="http://www.w3.org/2000/svg">
<path d="M113.656 466.086C113.656 480.398 124.149 492 137.094 492H364.907C377.851 492 388.345 480.398 388.345 466.086V390.417H113.656V466.086Z" fill="#FFFBE7"/>
<path d="M388.344 35.914C388.344 21.602 377.85 10 364.906 10H137.094C124.15 10 113.656 21.602 113.656 35.914V68.047H388.344V35.914Z" fill="#FFFBE7"/>
<path d="M388.344 68.047H113.656V390.417H388.344V68.047Z" fill="#009BFF"/>
<path d="M251 458.83C261.019 458.83 269.14 450.709 269.14 440.69C269.14 430.672 261.019 422.55 251 422.55C240.982 422.55 232.86 430.672 232.86 440.69C232.86 450.709 240.982 458.83 251 458.83Z" fill="#009BFF"/>
<path d="M103.656 466.086C103.656 485.889 118.656 502 137.094 502H364.907C383.345 502 398.345 485.889 398.345 466.086V35.914C398.345 16.111 383.345 0 364.907 0H137.094C118.656 0 103.656 16.111 103.656 35.914C103.656 35.914 103.656 466.086 103.656 466.086ZM123.656 78.047H378.344V380.417H123.656V78.047ZM123.656 35.914C123.656 27.139 129.684 20 137.094 20H364.907C372.316 20 378.345 27.139 378.345 35.914V58.047H123.656V35.914ZM378.344 466.086C378.344 474.861 372.316 482 364.906 482H137.094C129.684 482 123.656 474.861 123.656 466.086V400.417H378.344V466.086Z" fill="#555555"/>
<path d="M251 468.83C266.517 468.83 279.14 456.207 279.14 440.69C279.14 425.173 266.517 412.55 251 412.55C235.484 412.55 222.86 425.173 222.86 440.69C222.86 456.207 235.484 468.83 251 468.83ZM251 432.551C255.488 432.551 259.14 436.202 259.14 440.691C259.14 445.18 255.489 448.831 251 448.831C246.511 448.831 242.86 445.18 242.86 440.691C242.86 436.202 246.512 432.551 251 432.551Z" fill="#555555"/>
<path d="M260.329 30.061H241.671C236.148 30.061 231.671 34.539 231.671 40.061C231.671 45.583 236.148 50.061 241.671 50.061H260.329C265.851 50.061 270.329 45.583 270.329 40.061C270.329 34.539 265.852 30.061 260.329 30.061Z" fill="#555555"/>
</svg>
