<svg width="32" height="32" viewBox="0 0 32 32" fill="none" xmlns="http://www.w3.org/2000/svg">
<path d="M25 0.5H7C3.41015 0.5 0.5 3.41015 0.5 7V25C0.5 28.5899 3.41015 31.5 7 31.5H25C28.5899 31.5 31.5 28.5899 31.5 25V7C31.5 3.41015 28.5899 0.5 25 0.5Z" fill="white" stroke="#F8F8F8"/>
<path d="M19.9705 10.5834C20.4097 10.7637 20.8101 11.0265 21.149 11.3561C21.4865 11.6836 21.756 12.0729 21.9429 12.5022C22.1365 12.9487 22.2347 13.4204 22.2333 13.9065V13.9085C22.2333 14.3626 22.1399 14.8513 21.9418 15.3652L21.9412 15.3668C21.7771 15.7955 21.5328 16.2543 21.2114 16.7304C20.7031 17.4821 19.9911 18.2848 19.0868 19.1132C17.5822 20.4903 16.0913 21.4425 16.0401 21.475L15.7333 21.6702L15.4155 21.4681C15.4155 21.4681 13.129 19.7996 12.3799 19.1132C11.4753 18.2846 10.7634 17.4819 10.255 16.73C9.93468 16.2554 9.69125 15.7961 9.52487 15.3652C9.32687 14.8514 9.23334 14.3625 9.23334 13.9085C9.23334 13.4209 9.33188 12.9483 9.52558 12.5017C9.71175 12.0726 9.98112 11.6835 10.3187 11.3567L10.3197 11.3557C10.6606 11.0244 11.0577 10.7642 11.4987 10.583C11.9546 10.3951 12.4373 10.3001 12.9388 10.3001C13.6337 10.3001 14.3099 10.4889 14.8966 10.844C15.037 10.9289 15.1698 11.0219 15.2953 11.1229L15.7341 11.4761L16.173 11.1229C16.2985 11.0219 16.4313 10.9288 16.5717 10.8439C17.1584 10.4888 17.8346 10.3001 18.5295 10.3001H18.5311C19.0249 10.299 19.5148 10.3956 19.9705 10.5834Z" stroke="#ECECEC" stroke-width="1.4"/>
</svg>
